<svg width="922" height="1246" viewBox="0 0 922 1246" fill="none" xmlns="http://www.w3.org/2000/svg">
<path d="M549.035 518.575C552.256 518.201 555.767 518.089 559.022 518.075C580.342 517.956 600.829 526.459 615.944 541.701C634.791 560.853 640.147 583.51 639.072 609.44C639.035 616.309 639.203 623.178 638.301 630.004C634.523 658.617 621.039 685.757 600.729 705.974C593.135 713.531 585.11 720.436 576.109 726.179C565.855 732.726 555.445 738.986 544.117 743.434C539.77 745.149 535.022 747.285 530.263 747.303C527.669 747.315 526.087 745.289 524.584 743.476C524.32 740.671 524.152 738.652 525.842 736.279C530.116 730.389 535.764 725.632 540.801 720.357C553.718 706.832 563.782 693.904 573.119 677.574L572.75 677.635C549.724 681.055 527.631 676.875 508.844 662.419C492.154 649.533 481.178 630.466 478.317 609.403C475.396 587.927 481.149 566.164 494.271 549.044C508.209 530.926 526.827 521.378 549.035 518.575Z" fill="black"/>
<path d="M354.461 519.306C357.682 518.932 361.193 518.82 364.449 518.806C385.769 518.687 406.256 527.19 421.371 542.432C440.218 561.584 445.574 584.241 444.499 610.171C444.462 617.039 444.63 623.908 443.727 630.734C439.949 659.347 426.466 686.488 406.156 706.705C398.562 714.261 390.537 721.167 381.536 726.91C371.282 733.456 360.872 739.717 349.544 744.164C345.197 745.88 340.448 748.015 335.69 748.034C333.096 748.046 331.513 746.02 330.01 744.207C329.746 741.402 329.579 739.382 331.269 737.009C335.542 731.12 341.191 726.363 346.228 721.088C359.145 707.563 369.209 694.635 378.546 678.305L378.177 678.366C355.15 681.785 333.058 677.606 314.27 663.15C297.581 650.264 286.605 631.197 283.744 610.134C280.823 588.658 286.576 566.895 299.698 549.775C313.635 531.657 332.254 522.109 354.461 519.306Z" fill="black"/>
<path d="M319.335 507.878C315.343 501.77 312.441 497.104 304.693 497.53C301.521 500.015 300.544 501.348 300.147 505.621C299.548 512.077 299.803 519.153 299.8 525.678C299.742 534.58 299.609 543.482 299.401 552.383C291.729 564.189 285.972 578.294 284.292 592.646L284.024 603.481C284.247 606.783 284.392 610.94 285.14 614.082C300.005 681.941 384.606 703.167 427.621 649.956C436.072 638.824 439.395 629.736 443.131 616.517C443.437 613.003 444.234 604.667 444.666 601.167L444.214 590.45C440.933 574.699 438.148 565.92 429.052 552.188L428.565 522.33C428.528 517.442 429.101 510.328 428.261 505.919C425.305 490.398 415.332 498.152 410.111 506.508C405.644 513.656 400.864 520.035 395.352 525.788C373.87 518.199 354.672 517.656 333.141 525.866C327.72 520.075 323.693 514.544 319.335 507.878Z" fill="black"/>
</svg>
